<?xml version="1.0" encoding="UTF-8" standalone="no"?>
<!-- Created with Inkscape (http://www.inkscape.org/) -->

<svg
   width="148mm"
   height="210mm"
   viewBox="0 0 148 210"
   version="1.1"
   id="svg5"
   sodipodi:docname="db.svg"
   inkscape:version="1.1.1 (3bf5ae0d25, 2021-09-20)"
   xmlns:inkscape="http://www.inkscape.org/namespaces/inkscape"
   xmlns:sodipodi="http://sodipodi.sourceforge.net/DTD/sodipodi-0.dtd"
   xmlns="http://www.w3.org/2000/svg"
   xmlns:svg="http://www.w3.org/2000/svg">
  <sodipodi:namedview
     id="namedview7"
     pagecolor="#16165a"
     bordercolor="#666666"
     borderopacity="1.0"
     inkscape:pageshadow="2"
     inkscape:pageopacity="0"
     inkscape:pagecheckerboard="0"
     inkscape:document-units="mm"
     showgrid="false"
     showguides="true"
     inkscape:guide-bbox="true"
     inkscape:zoom="0.7411897"
     inkscape:cx="-184.16338"
     inkscape:cy="462.09493"
     inkscape:window-width="1920"
     inkscape:window-height="1017"
     inkscape:window-x="-8"
     inkscape:window-y="1192"
     inkscape:window-maximized="1"
     inkscape:current-layer="layer1" />
  <defs
     id="defs2" />
  <g
     inkscape:groupmode="layer"
     id="layer2"
     inkscape:label="Graph" />
  <g
     inkscape:label="Coordinatesystem"
     inkscape:groupmode="layer"
     id="layer1">
    <g
       id="g4701"
       transform="matrix(3.451535,0,0,3.451535,-289.8442,-140.516)" />
    <g
       id="g1612"
       transform="matrix(3.0931999,0,0,3.3005775,-153.59475,-262.76673)">
      <path
         id="rect931"
         style="fill:#ffffff;stroke-width:0.853845"
         d="m 52.474833,120.21529 v 7.58041 h 0.03514 a 21.172851,7.2286653 0 0 0 -0.01292,0.13384 21.172851,7.2286653 0 0 0 21.172868,7.2285 21.172851,7.2286653 0 0 0 21.172868,-7.2285 21.172851,7.2286653 0 0 0 -0.06718,-0.5705 v -7.14375 h -0.01137 a 21.172851,7.2286653 0 0 1 -21.131009,6.99389 21.172851,7.2286653 0 0 1 -21.131011,-6.99389 z" />
      <path
         id="rect931-6"
         style="fill:#ffffff;stroke-width:0.853845"
         d="m 52.39549,109.9655 v 7.58041 h 0.03514 a 21.172851,7.2286653 0 0 0 -0.01291,0.13385 21.172851,7.2286653 0 0 0 21.172868,7.2285 21.172851,7.2286653 0 0 0 21.172868,-7.2285 21.172851,7.2286653 0 0 0 -0.06718,-0.57051 v -7.14375 h -0.01138 a 21.172851,7.2286653 0 0 1 -21.131009,6.99389 21.172851,7.2286653 0 0 1 -21.131011,-6.99389 z" />
      <path
         id="rect931-6-5"
         style="fill:#ffffff;stroke-width:0.853845"
         d="m 52.441315,99.619962 v 7.580408 h 0.03514 a 21.172851,7.2286653 0 0 0 -0.01291,0.13385 21.172851,7.2286653 0 0 0 21.172868,7.2285 21.172851,7.2286653 0 0 0 21.172872,-7.2285 21.172851,7.2286653 0 0 0 -0.0672,-0.57051 v -7.143748 h -0.0114 A 21.172851,7.2286653 0 0 1 73.599672,106.61385 21.172851,7.2286653 0 0 1 52.468661,99.619962 Z" />
      <ellipse
         style="fill:#ffffff;stroke-width:2.18252"
         id="path955-3"
         cx="73.625298"
         cy="96.649933"
         rx="21.172852"
         ry="7.2286654" />
      <ellipse
         style="fill:#ff1c08;fill-opacity:1;stroke-width:1.70774"
         id="path1322"
         cx="89.513283"
         cy="128.44856"
         rx="0.91501051"
         ry="0.91501063" />
      <ellipse
         style="fill:#30db07;fill-opacity:1;stroke-width:1.70774"
         id="path1322-5"
         cx="86.957558"
         cy="129.23735"
         rx="0.91501051"
         ry="0.91501063" />
    </g>
  </g>
</svg>
